<svg xmlns="http://www.w3.org/2000/svg" viewBox="0 0 200 200"><path d="M 128.730 126.997 L 127.961 126.367 L 127.191 125.727 L 126.417 125.077 L 125.641 124.417 L 124.863 123.749 L 124.082 123.071 L 123.299 122.385 L 122.514 121.690 L 121.727 120.987 L 120.937 120.276 L 120.146 119.558 L 119.353 118.832 L 118.558 118.099 L 117.761 117.359 L 116.962 116.613 L 116.162 115.860 L 115.361 115.102 L 114.558 114.337 L 113.753 113.568 L 112.947 112.793 L 112.140 112.013 L 111.332 111.229 L 110.523 110.440 L 109.713 109.648 L 108.902 108.852 L 108.090 108.052 L 107.277 107.250 L 106.464 106.445 L 105.650 105.637 L 104.835 104.827 L 104.020 104.016 L 103.205 103.203 L 102.389 102.388 L 101.573 101.573 L 100.757 100.757 L 99.941 99.941 L 99.125 99.125 L 98.309 98.310 L 97.493 97.494 L 96.678 96.680 L 95.862 95.867 L 95.048 95.056 L 94.233 94.247 L 93.419 93.439 L 92.606 92.635 L 91.793 91.833 L 90.981 91.034 L 90.171 90.238 L 89.361 89.446 L 88.551 88.658 L 87.744 87.875 L 86.937 87.096 L 86.131 86.322 L 85.327 85.553 L 84.524 84.789 L 83.723 84.031 L 82.923 83.279 L 82.125 82.534 L 81.328 81.795 L 80.533 81.063 L 79.740 80.338 L 78.949 79.621 L 78.160 78.911 L 77.373 78.209 L 76.588 77.516 L 75.806 76.831 L 75.025 76.155 L 74.247 75.487 L 73.472 74.829 L 72.698 74.181 L 71.928 73.542 L 71.160 72.913 L 70.395 72.295 L 69.633 71.687 L 68.873 71.089 L 68.117 70.503 L 67.363 69.927 L 66.613 69.363 L 65.865 68.811 L 65.121 68.270 L 64.381 67.741 L 63.643 67.225 L 62.909 66.721 L 62.179 66.229 L 61.452 65.750 L 60.728 65.285 L 60.009 64.832 L 59.293 64.392 L 58.581 63.966 L 57.873 63.554 L 57.169 63.155 L 56.469 62.770 L 55.773 62.400 L 55.081 62.043 L 54.394 61.701 L 53.711 61.373 L 53.032 61.060 L 52.357 60.762 L 51.688 60.478 L 51.022 60.209 L 50.362 59.956 L 49.705 59.717 L 49.054 59.494 L 48.408 59.286 L 47.766 59.093 L 47.129 58.916 L 46.498 58.754 L 45.871 58.608 L 45.250 58.477 L 44.633 58.363 L 44.022 58.263 L 43.416 58.180 L 42.816 58.112 L 42.221 58.061 L 41.631 58.025 L 41.047 58.005 L 40.468 58.000 L 39.895 58.012 L 39.328 58.040 L 38.767 58.083 L 38.211 58.142 L 37.661 58.217 L 37.117 58.308 L 36.579 58.414 L 36.047 58.536 L 35.521 58.674 L 35.001 58.828 L 34.487 58.997 L 33.979 59.181 L 33.477 59.381 L 32.982 59.596 L 32.493 59.827 L 32.011 60.072 L 31.535 60.333 L 31.065 60.609 L 30.602 60.899 L 30.146 61.205 L 29.696 61.525 L 29.252 61.859 L 28.816 62.208 L 28.386 62.571 L 27.963 62.948 L 27.546 63.340 L 27.137 63.745 L 26.734 64.164 L 26.339 64.596 L 25.950 65.042 L 25.568 65.501 L 25.193 65.973 L 24.826 66.457 L 24.465 66.955 L 24.111 67.465 L 23.765 67.987 L 23.426 68.521 L 23.094 69.067 L 22.770 69.625 L 22.452 70.195 L 22.142 70.775 L 21.840 71.367 L 21.544 71.969 L 21.256 72.582 L 20.976 73.206 L 20.703 73.839 L 20.437 74.482 L 20.179 75.135 L 19.929 75.798 L 19.686 76.469 L 19.451 77.150 L 19.223 77.839 L 19.003 78.536 L 18.791 79.242 L 18.586 79.955 L 18.389 80.676 L 18.199 81.404 L 18.018 82.139 L 17.844 82.881 L 17.678 83.630 L 17.519 84.384 L 17.369 85.145 L 17.226 85.911 L 17.091 86.682 L 16.964 87.459 L 16.844 88.240 L 16.733 89.026 L 16.629 89.816 L 16.533 90.609 L 16.445 91.406 L 16.365 92.207 L 16.293 93.010 L 16.229 93.816 L 16.173 94.625 L 16.125 95.435 L 16.084 96.247 L 16.052 97.060 L 16.027 97.875 L 16.010 98.691 L 16.001 99.506 L 16.001 100.323 L 16.008 101.139 L 16.023 101.954 L 16.046 102.769 L 16.077 103.583 L 16.115 104.395 L 16.162 105.206 L 16.217 106.015 L 16.279 106.821 L 16.350 107.625 L 16.428 108.426 L 16.514 109.224 L 16.608 110.018 L 16.710 110.809 L 16.820 111.596 L 16.938 112.378 L 17.063 113.155 L 17.197 113.928 L 17.338 114.695 L 17.487 115.457 L 17.644 116.213 L 17.808 116.962 L 17.981 117.706 L 18.161 118.442 L 18.348 119.172 L 18.544 119.894 L 18.747 120.609 L 18.958 121.317 L 19.176 122.016 L 19.402 122.707 L 19.636 123.389 L 19.877 124.062 L 20.126 124.726 L 20.383 125.381 L 20.647 126.027 L 20.918 126.662 L 21.197 127.288 L 21.483 127.903 L 21.777 128.508 L 22.078 129.102 L 22.387 129.685 L 22.702 130.256 L 23.026 130.817 L 23.356 131.365 L 23.693 131.902 L 24.038 132.427 L 24.390 132.939 L 24.749 133.439 L 25.116 133.927 L 25.489 134.402 L 25.869 134.863 L 26.256 135.312 L 26.651 135.747 L 27.052 136.169 L 27.460 136.577 L 27.875 136.971 L 28.297 137.351 L 28.725 137.717 L 29.160 138.069 L 29.602 138.407 L 30.051 138.730 L 30.506 139.038 L 30.968 139.332 L 31.436 139.610 L 31.911 139.874 L 32.392 140.123 L 32.879 140.357 L 33.373 140.575 L 33.873 140.778 L 34.380 140.966 L 34.892 141.138 L 35.411 141.295 L 35.936 141.436 L 36.467 141.561 L 37.004 141.671 L 37.546 141.765 L 38.095 141.844 L 38.650 141.906 L 39.210 141.953 L 39.776 141.983 L 40.348 141.998 L 40.925 141.998 L 41.508 141.981 L 42.097 141.948 L 42.691 141.900 L 43.290 141.835 L 43.895 141.755 L 44.505 141.660 L 45.120 141.548 L 45.741 141.421 L 46.366 141.278 L 46.997 141.119 L 47.632 140.945 L 48.273 140.756 L 48.918 140.551 L 49.569 140.331 L 50.224 140.096 L 50.883 139.845 L 51.548 139.580 L 52.217 139.299 L 52.890 139.004 L 53.568 138.694 L 54.250 138.369 L 54.937 138.030 L 55.628 137.676 L 56.323 137.308 L 57.022 136.927 L 57.725 136.531 L 58.432 136.121 L 59.144 135.698 L 59.859 135.261 L 60.577 134.811 L 61.300 134.348 L 62.026 133.872 L 62.756 133.383 L 63.489 132.882 L 64.226 132.368 L 64.966 131.842 L 65.709 131.303 L 66.456 130.753 L 67.206 130.192 L 67.958 129.619 L 68.714 129.035 L 69.473 128.440 L 70.235 127.834 L 71.000 127.217 L 71.767 126.591 L 72.537 125.954 L 73.309 125.307 L 74.084 124.651 L 74.862 123.986 L 75.642 123.312 L 76.424 122.628 L 77.208 121.937 L 77.995 121.237 L 78.784 120.528 L 79.574 119.813 L 80.367 119.089 L 81.161 118.359 L 81.957 117.621 L 82.755 116.877 L 83.555 116.127 L 84.356 115.370 L 85.159 114.608 L 85.963 113.840 L 86.768 113.067 L 87.574 112.289 L 88.382 111.506 L 89.191 110.719 L 90.001 109.928 L 90.811 109.133 L 91.623 108.335 L 92.436 107.534 L 93.249 106.729 L 94.062 105.923 L 94.877 105.114 L 95.692 104.303 L 96.507 103.490 L 97.322 102.676 L 98.138 101.861 L 98.954 101.046 L 99.770 100.230 L 100.586 99.414 L 101.402 98.598 L 102.218 97.782 L 103.034 96.968 L 103.850 96.154 L 104.665 95.343 L 105.479 94.532 L 106.293 93.724 L 107.107 92.919 L 107.920 92.116 L 108.732 91.316 L 109.543 90.519 L 110.353 89.726 L 111.163 88.936 L 111.971 88.151 L 112.778 87.370 L 113.584 86.594 L 114.389 85.824 L 115.192 85.058 L 115.994 84.298 L 116.795 83.544 L 117.594 82.797 L 118.391 82.055 L 119.186 81.321 L 119.980 80.594 L 120.772 79.873 L 121.561 79.161 L 122.349 78.456 L 123.135 77.760 L 123.918 77.072 L 124.699 76.392 L 125.478 75.722 L 126.255 75.061 L 127.029 74.409 L 127.800 73.767 L 128.569 73.134 L 129.335 72.512 L 130.098 71.900 L 130.859 71.299 L 131.616 70.709 L 132.371 70.129 L 133.123 69.561 L 133.871 69.005 L 134.616 68.460 L 135.358 67.927 L 136.097 67.406 L 136.832 66.898 L 137.564 66.402 L 138.292 65.918 L 139.016 65.448 L 139.737 64.990 L 140.454 64.546 L 141.168 64.115 L 141.877 63.698 L 142.583 63.294 L 143.284 62.905 L 143.982 62.529 L 144.675 62.167 L 145.364 61.820 L 146.048 61.487 L 146.729 61.169 L 147.405 60.865 L 148.076 60.577 L 148.743 60.303 L 149.406 60.044 L 150.063 59.800 L 150.716 59.571 L 151.364 59.357 L 152.008 59.159 L 152.646 58.977 L 153.280 58.809 L 153.908 58.658 L 154.531 58.522 L 155.150 58.401 L 155.762 58.297 L 156.370 58.208 L 156.973 58.135 L 157.570 58.077 L 158.161 58.036 L 158.747 58.010 L 159.328 58.000 L 159.903 58.006 L 160.472 58.028 L 161.036 58.066 L 161.593 58.119 L 162.145 58.189 L 162.692 58.274 L 163.232 58.375 L 163.766 58.491 L 164.294 58.624 L 164.816 58.772 L 165.333 58.935 L 165.842 59.114 L 166.346 59.309 L 166.843 59.518 L 167.335 59.743 L 167.819 59.984 L 168.298 60.239 L 168.770 60.510 L 169.235 60.795 L 169.694 61.095 L 170.146 61.410 L 170.592 61.739 L 171.031 62.083 L 171.463 62.441 L 171.889 62.813 L 172.307 63.200 L 172.719 63.600 L 173.124 64.014 L 173.522 64.442 L 173.914 64.883 L 174.298 65.337 L 174.675 65.804 L 175.045 66.285 L 175.408 66.778 L 175.764 67.283 L 176.113 67.801 L 176.455 68.331 L 176.789 68.873 L 177.117 69.427 L 177.437 69.992 L 177.749 70.569 L 178.054 71.157 L 178.352 71.755 L 178.643 72.364 L 178.926 72.984 L 179.201 73.614 L 179.470 74.254 L 179.730 74.904 L 179.983 75.563 L 180.229 76.231 L 180.467 76.908 L 180.697 77.594 L 180.920 78.289 L 181.135 78.992 L 181.343 79.702 L 181.543 80.420 L 181.735 81.146 L 181.919 81.879 L 182.096 82.618 L 182.265 83.365 L 182.426 84.117 L 182.579 84.876 L 182.725 85.640 L 182.862 86.409 L 182.992 87.184 L 183.115 87.964 L 183.229 88.748 L 183.335 89.536 L 183.434 90.328 L 183.524 91.124 L 183.607 91.924 L 183.682 92.726 L 183.749 93.531 L 183.808 94.339 L 183.859 95.148 L 183.903 95.960 L 183.938 96.773 L 183.965 97.587 L 183.985 98.402 L 183.996 99.218 L 184.000 100.034 L 183.996 100.850 L 183.983 101.666 L 183.963 102.481 L 183.935 103.295 L 183.899 104.108 L 183.855 104.920 L 183.803 105.729 L 183.744 106.536 L 183.676 107.341 L 183.601 108.143 L 183.517 108.943 L 183.426 109.738 L 183.327 110.530 L 183.219 111.318 L 183.105 112.102 L 182.982 112.881 L 182.851 113.655 L 182.713 114.425 L 182.567 115.188 L 182.413 115.946 L 182.251 116.698 L 182.081 117.444 L 181.904 118.183 L 181.719 118.915 L 181.526 119.640 L 181.326 120.358 L 181.117 121.068 L 180.902 121.770 L 180.678 122.463 L 180.447 123.149 L 180.209 123.825 L 179.962 124.493 L 179.709 125.151 L 179.447 125.800 L 179.179 126.439 L 178.902 127.068 L 178.619 127.687 L 178.328 128.295 L 178.029 128.893 L 177.723 129.480 L 177.410 130.056 L 177.089 130.620 L 176.762 131.173 L 176.427 131.714 L 176.084 132.243 L 175.735 132.760 L 175.378 133.264 L 175.015 133.756 L 174.644 134.235 L 174.266 134.702 L 173.881 135.155 L 173.489 135.595 L 173.091 136.021 L 172.685 136.434 L 172.272 136.833 L 171.853 137.218 L 171.427 137.589 L 170.994 137.946 L 170.555 138.289 L 170.108 138.617 L 169.656 138.931 L 169.196 139.230 L 168.730 139.514 L 168.258 139.783 L 167.779 140.037 L 167.294 140.276 L 166.802 140.500 L 166.304 140.708 L 165.800 140.901 L 165.289 141.079 L 164.773 141.241 L 164.250 141.388 L 163.722 141.519 L 163.187 141.634 L 162.646 141.734 L 162.099 141.818 L 161.547 141.886 L 160.989 141.938 L 160.425 141.974" fill="none" stroke="#BD2172" stroke-width="21.0" stroke-linecap="round" stroke-linejoin="round"/><path d="M 138.629 145.315 L 157.083 120.179 L 163.766 163.770 Z" fill="#BD2172"/></svg>