<svg xmlns="http://www.w3.org/2000/svg" viewBox="0 0 292.52 104"><g transform="translate(12,78)"><g transform="translate(0.000,0) scale(0.10000,-0.10000)"><path d="M233 740V0H62V740Z" fill="#17171A"/></g><path d="M 124.920 -27.900 L 124.915 -27.595 L 124.899 -27.291 L 124.873 -26.987 L 124.836 -26.684 L 124.789 -26.383 L 124.732 -26.082 L 124.664 -25.784 L 124.585 -25.488 L 124.496 -25.194 L 124.397 -24.903 L 124.288 -24.614 L 124.168 -24.329 L 124.038 -24.048 L 123.897 -23.770 L 123.747 -23.496 L 123.586 -23.227 L 123.415 -22.962 L 123.234 -22.702 L 123.043 -22.448 L 122.842 -22.198 L 122.631 -21.955 L 122.410 -21.717 L 122.179 -21.485 L 121.938 -21.260 L 121.688 -21.041 L 121.428 -20.829 L 121.158 -20.624 L 120.879 -20.426 L 120.590 -20.235 L 120.292 -20.053 L 119.985 -19.877 L 119.668 -19.710 L 119.342 -19.551 L 119.007 -19.400 L 118.663 -19.257 L 118.310 -19.123 L 117.948 -18.998 L 117.578 -18.881 L 117.199 -18.773 L 116.811 -18.675 L 116.415 -18.585 L 116.010 -18.505 L 115.597 -18.434 L 115.176 -18.372 L 114.747 -18.319 L 114.310 -18.276 L 113.865 -18.243 L 113.412 -18.219 L 112.952 -18.205 L 112.484 -18.200 L 112.008 -18.205 L 111.526 -18.219 L 111.036 -18.243 L 110.539 -18.276 L 110.036 -18.319 L 109.525 -18.372 L 109.008 -18.434 L 108.484 -18.505 L 107.954 -18.585 L 107.417 -18.675 L 106.875 -18.773 L 106.326 -18.881 L 105.772 -18.998 L 105.211 -19.123 L 104.645 -19.257 L 104.074 -19.400 L 103.497 -19.551 L 102.915 -19.710 L 102.328 -19.877 L 101.736 -20.053 L 101.140 -20.235 L 100.539 -20.426 L 99.933 -20.624 L 99.323 -20.829 L 98.709 -21.041 L 98.091 -21.260 L 97.469 -21.485 L 96.843 -21.717 L 96.214 -21.955 L 95.581 -22.198 L 94.945 -22.448 L 94.306 -22.702 L 93.664 -22.962 L 93.019 -23.227 L 92.372 -23.496 L 91.722 -23.770 L 91.070 -24.048 L 90.416 -24.329 L 89.760 -24.614 L 89.102 -24.903 L 88.443 -25.194 L 87.782 -25.488 L 87.119 -25.784 L 86.456 -26.082 L 85.791 -26.383 L 85.126 -26.684 L 84.460 -26.987 L 83.794 -27.291 L 83.127 -27.595 L 82.460 -27.900 L 81.793 -28.205 L 81.126 -28.509 L 80.460 -28.813 L 79.794 -29.116 L 79.129 -29.417 L 78.464 -29.718 L 77.801 -30.016 L 77.138 -30.312 L 76.477 -30.606 L 75.818 -30.897 L 75.160 -31.186 L 74.504 -31.471 L 73.850 -31.752 L 73.198 -32.030 L 72.548 -32.304 L 71.901 -32.573 L 71.256 -32.838 L 70.614 -33.098 L 69.975 -33.352 L 69.339 -33.602 L 68.706 -33.845 L 68.077 -34.083 L 67.451 -34.315 L 66.829 -34.540 L 66.211 -34.759 L 65.597 -34.971 L 64.987 -35.176 L 64.381 -35.374 L 63.780 -35.565 L 63.184 -35.747 L 62.592 -35.923 L 62.005 -36.090 L 61.423 -36.249 L 60.846 -36.400 L 60.275 -36.543 L 59.709 -36.677 L 59.148 -36.802 L 58.594 -36.919 L 58.045 -37.027 L 57.503 -37.125 L 56.966 -37.215 L 56.436 -37.295 L 55.912 -37.366 L 55.395 -37.428 L 54.884 -37.481 L 54.381 -37.524 L 53.884 -37.557 L 53.394 -37.581 L 52.912 -37.595 L 52.436 -37.600 L 51.968 -37.595 L 51.508 -37.581 L 51.055 -37.557 L 50.610 -37.524 L 50.173 -37.481 L 49.744 -37.428 L 49.323 -37.366 L 48.910 -37.295 L 48.505 -37.215 L 48.109 -37.125 L 47.721 -37.027 L 47.342 -36.919 L 46.972 -36.802 L 46.610 -36.677 L 46.257 -36.543 L 45.913 -36.400 L 45.578 -36.249 L 45.252 -36.090 L 44.935 -35.923 L 44.628 -35.747 L 44.330 -35.565 L 44.041 -35.374 L 43.762 -35.176 L 43.492 -34.971 L 43.232 -34.759 L 42.982 -34.540 L 42.741 -34.315 L 42.510 -34.083 L 42.289 -33.845 L 42.078 -33.602 L 41.877 -33.352 L 41.686 -33.098 L 41.505 -32.838 L 41.334 -32.573 L 41.173 -32.304 L 41.023 -32.030 L 40.882 -31.752 L 40.752 -31.471 L 40.632 -31.186 L 40.523 -30.897 L 40.424 -30.606 L 40.335 -30.312 L 40.256 -30.016 L 40.188 -29.718 L 40.131 -29.417 L 40.084 -29.116 L 40.047 -28.813 L 40.021 -28.509 L 40.005 -28.205 L 40.000 -27.900 L 40.005 -27.595 L 40.021 -27.291 L 40.047 -26.987 L 40.084 -26.684 L 40.131 -26.383 L 40.188 -26.082 L 40.256 -25.784 L 40.335 -25.488 L 40.424 -25.194 L 40.523 -24.903 L 40.632 -24.614 L 40.752 -24.329 L 40.882 -24.048 L 41.023 -23.770 L 41.173 -23.496 L 41.334 -23.227 L 41.505 -22.962 L 41.686 -22.702 L 41.877 -22.448 L 42.078 -22.198 L 42.289 -21.955 L 42.510 -21.717 L 42.741 -21.485 L 42.982 -21.260 L 43.232 -21.041 L 43.492 -20.829 L 43.762 -20.624 L 44.041 -20.426 L 44.330 -20.235 L 44.628 -20.053 L 44.935 -19.877 L 45.252 -19.710 L 45.578 -19.551 L 45.913 -19.400 L 46.257 -19.257 L 46.610 -19.123 L 46.972 -18.998 L 47.342 -18.881 L 47.721 -18.773 L 48.109 -18.675 L 48.505 -18.585 L 48.910 -18.505 L 49.323 -18.434 L 49.744 -18.372 L 50.173 -18.319 L 50.610 -18.276 L 51.055 -18.243 L 51.508 -18.219 L 51.968 -18.205 L 52.436 -18.200 L 52.912 -18.205 L 53.394 -18.219 L 53.884 -18.243 L 54.381 -18.276 L 54.884 -18.319 L 55.395 -18.372 L 55.912 -18.434 L 56.436 -18.505 L 56.966 -18.585 L 57.503 -18.675 L 58.045 -18.773 L 58.594 -18.881 L 59.148 -18.998 L 59.709 -19.123 L 60.275 -19.257 L 60.846 -19.400 L 61.423 -19.551 L 62.005 -19.710 L 62.592 -19.877 L 63.184 -20.053 L 63.780 -20.235 L 64.381 -20.426 L 64.987 -20.624 L 65.597 -20.829 L 66.211 -21.041 L 66.829 -21.260 L 67.451 -21.485 L 68.077 -21.717 L 68.706 -21.955 L 69.339 -22.198 L 69.975 -22.448 L 70.614 -22.702 L 71.256 -22.962 L 71.901 -23.227 L 72.548 -23.496 L 73.198 -23.770 L 73.850 -24.048 L 74.504 -24.329 L 75.160 -24.614 L 75.818 -24.903 L 76.477 -25.194 L 77.138 -25.488 L 77.801 -25.784 L 78.464 -26.082 L 79.129 -26.383 L 79.794 -26.684 L 80.460 -26.987 L 81.126 -27.291 L 81.793 -27.595 L 82.460 -27.900 L 83.127 -28.205 L 83.794 -28.509 L 84.460 -28.813 L 85.126 -29.116 L 85.791 -29.417 L 86.456 -29.718 L 87.119 -30.016 L 87.782 -30.312 L 88.443 -30.606 L 89.102 -30.897 L 89.760 -31.186 L 90.416 -31.471 L 91.070 -31.752 L 91.722 -32.030 L 92.372 -32.304 L 93.019 -32.573 L 93.664 -32.838 L 94.306 -33.098 L 94.945 -33.352 L 95.581 -33.602 L 96.214 -33.845 L 96.843 -34.083 L 97.469 -34.315 L 98.091 -34.540 L 98.709 -34.759 L 99.323 -34.971 L 99.933 -35.176 L 100.539 -35.374 L 101.140 -35.565 L 101.736 -35.747 L 102.328 -35.923 L 102.915 -36.090 L 103.497 -36.249 L 104.074 -36.400 L 104.645 -36.543 L 105.211 -36.677 L 105.772 -36.802 L 106.326 -36.919 L 106.875 -37.027 L 107.417 -37.125 L 107.954 -37.215 L 108.484 -37.295 L 109.008 -37.366 L 109.525 -37.428 L 110.036 -37.481 L 110.539 -37.524 L 111.036 -37.557 L 111.526 -37.581 L 112.008 -37.595 L 112.484 -37.600 L 112.952 -37.595 L 113.412 -37.581 L 113.865 -37.557 L 114.310 -37.524 L 114.747 -37.481 L 115.176 -37.428 L 115.597 -37.366 L 116.010 -37.295 L 116.415 -37.215 L 116.811 -37.125 L 117.199 -37.027 L 117.578 -36.919 L 117.948 -36.802 L 118.310 -36.677 L 118.663 -36.543 L 119.007 -36.400 L 119.342 -36.249 L 119.668 -36.090 L 119.985 -35.923 L 120.292 -35.747 L 120.590 -35.565 L 120.879 -35.374 L 121.158 -35.176 L 121.428 -34.971 L 121.688 -34.759 L 121.938 -34.540 L 122.179 -34.315 L 122.410 -34.083 L 122.631 -33.845 L 122.842 -33.602 L 123.043 -33.352 L 123.234 -33.098 L 123.415 -32.838 L 123.586 -32.573 L 123.747 -32.304 L 123.897 -32.030 L 124.038 -31.752 L 124.168 -31.471 L 124.288 -31.186 L 124.397 -30.897 L 124.496 -30.606 L 124.585 -30.312 L 124.664 -30.016 L 124.732 -29.718 L 124.789 -29.417 L 124.836 -29.116 L 124.873 -28.813 L 124.899 -28.509 L 124.915 -28.205 L 124.920 -27.900" fill="none" stroke="#17171A" stroke-width="17.000" stroke-linecap="round" stroke-linejoin="round"/><g transform="translate(135.420,0) scale(0.10000,-0.10000)"><path d="M405 566Q474 566 530.0 531.0Q586 496 618.5 431.0Q651 366 651 280Q651 194 618.5 128.5Q586 63 530.0 27.5Q474 -8 405 -8Q347 -8 302.5 16.0Q258 40 233 78V-266H62V558H233V479Q258 518 302.0 542.0Q346 566 405 566ZM354 417Q303 417 267.5 380.0Q232 343 232 279Q232 215 267.5 178.0Q303 141 354 141Q405 141 441.0 178.5Q477 216 477 280Q477 344 441.5 380.5Q406 417 354 417Z" fill="#17171A"/></g><g transform="translate(205.320,0) scale(0.10000,-0.10000)"><path d="M632 558 282 -265H98L226 19L-1 558H190L319 209L447 558Z" fill="#17171A"/></g></g></svg>