<svg xmlns="http://www.w3.org/2000/svg" viewBox="0 0 528.08 150.00"><g transform="translate(18.697,-29.363) scale(0.98082)"><path d="M 177.517 129.458 L 177.976 129.006 L 178.429 128.547 L 178.874 128.081 L 179.311 127.608 L 179.742 127.128 L 180.164 126.642 L 180.579 126.149 L 180.986 125.649 L 181.385 125.143 L 181.777 124.631 L 182.160 124.113 L 182.535 123.589 L 182.901 123.059 L 183.259 122.523 L 183.609 121.982 L 183.950 121.435 L 184.283 120.883 L 184.607 120.326 L 184.922 119.764 L 185.228 119.197 L 185.525 118.625 L 185.814 118.049 L 186.093 117.468 L 186.363 116.883 L 186.624 116.293 L 186.875 115.700 L 187.117 115.103 L 187.350 114.502 L 187.573 113.897 L 187.787 113.289 L 187.991 112.678 L 188.185 112.063 L 188.370 111.446 L 188.545 110.826 L 188.710 110.203 L 188.866 109.577 L 189.011 108.950 L 189.147 108.320 L 189.273 107.688 L 189.389 107.054 L 189.495 106.418 L 189.590 105.781 L 189.676 105.142 L 189.752 104.502 L 189.818 103.861 L 189.873 103.219 L 189.919 102.576 L 189.954 101.933 L 189.980 101.289 L 189.995 100.644 L 190.000 100.000 L 189.995 99.356 L 189.980 98.711 L 189.954 98.067 L 189.919 97.424 L 189.873 96.781 L 189.818 96.139 L 189.752 95.498 L 189.676 94.858 L 189.590 94.219 L 189.495 93.582 L 189.389 92.946 L 189.273 92.312 L 189.147 91.680 L 189.011 91.050 L 188.866 90.423 L 188.710 89.797 L 188.545 89.174 L 188.370 88.554 L 188.185 87.937 L 187.991 87.322 L 187.787 86.711 L 187.573 86.103 L 187.350 85.498 L 187.117 84.897 L 186.875 84.300 L 186.624 83.707 L 186.363 83.117 L 186.093 82.532 L 185.814 81.951 L 185.525 81.375 L 185.228 80.803 L 184.922 80.236 L 184.607 79.674 L 184.283 79.117 L 183.950 78.565 L 183.609 78.018 L 183.259 77.477 L 182.901 76.941 L 182.535 76.411 L 182.160 75.887 L 181.777 75.369 L 181.385 74.857 L 180.986 74.351 L 180.579 73.851 L 180.164 73.358 L 179.742 72.872 L 179.311 72.392 L 178.874 71.919 L 178.429 71.453 L 177.976 70.994 L 177.517 70.542 L 177.050 70.097 L 176.577 69.660 L 176.097 69.230 L 175.610 68.808 L 175.116 68.394 L 174.616 67.987 L 174.110 67.589 L 173.597 67.198 L 173.079 66.815 L 172.554 66.441 L 172.024 66.075 L 171.488 65.717 L 170.946 65.368 L 170.399 65.027 L 169.847 64.695 L 169.289 64.372 L 168.727 64.057 L 168.159 63.752 L 167.587 63.455 L 167.010 63.168 L 166.429 62.889 L 165.844 62.620 L 165.254 62.360 L 164.661 62.109 L 164.063 61.867 L 163.462 61.635 L 162.857 61.413 L 162.249 61.200 L 161.637 60.996 L 161.023 60.802 L 160.405 60.618 L 159.785 60.444 L 159.162 60.279 L 158.536 60.124 L 157.908 59.979 L 157.278 59.844 L 156.646 59.719 L 156.012 59.604 L 155.376 59.499 L 154.739 59.404 L 154.100 59.318 L 153.460 59.243 L 152.819 59.178 L 152.177 59.123 L 151.534 59.078 L 150.890 59.044 L 150.246 59.019 L 149.602 59.004 L 148.957 59.000 L 148.313 59.006 L 147.669 59.022 L 147.025 59.048 L 146.381 59.084 L 145.739 59.130 L 145.097 59.186 L 144.456 59.253 L 143.816 59.329 L 143.177 59.416 L 142.540 59.512 L 141.904 59.619 L 141.271 59.735 L 140.639 59.862 L 140.009 59.998 L 139.381 60.144 L 138.756 60.300 L 138.133 60.466 L 137.513 60.642 L 136.896 60.827 L 136.282 61.022 L 135.671 61.227 L 135.063 61.441 L 134.459 61.665 L 133.858 61.899 L 133.261 62.141 L 132.668 62.393 L 132.079 62.655 L 131.494 62.925 L 130.913 63.205 L 130.337 63.494 L 129.766 63.792 L 129.199 64.099 L 128.637 64.414 L 128.080 64.739 L 127.529 65.072 L 126.982 65.414 L 126.441 65.764 L 125.906 66.123 L 125.376 66.490 L 124.853 66.865 L 124.335 67.249 L 123.823 67.641 L 123.318 68.040 L 122.818 68.448 L 122.326 68.863 L 121.840 69.287 L 121.360 69.717 L 120.888 70.155 L 120.422 70.601 L 119.964 71.054 L 119.512 71.514 L 119.068 71.981 L 118.631 72.455 L 118.202 72.935 L 117.781 73.423 L 117.367 73.917 L 116.961 74.417 L 116.562 74.924 L 116.172 75.437 L 115.790 75.956 L 115.417 76.481 L 115.051 77.012 L 114.694 77.548 L 114.694 77.548 L 113.714 79.045 L 112.735 80.542 L 111.755 82.038 L 110.776 83.535 L 109.796 85.032 L 108.816 86.529 L 107.837 88.026 L 106.857 89.522 L 105.878 91.019 L 104.898 92.516 L 103.918 94.013 L 102.939 95.510 L 101.959 97.006 L 100.980 98.503 L 100.000 100.000 L 99.020 101.497 L 98.041 102.994 L 97.061 104.490 L 96.082 105.987 L 95.102 107.484 L 94.122 108.981 L 93.143 110.478 L 92.163 111.974 L 91.184 113.471 L 90.204 114.968 L 89.224 116.465 L 88.245 117.962 L 87.265 119.458 L 86.286 120.955 L 85.306 122.452 L 85.306 122.452 L 84.949 122.988 L 84.583 123.519 L 84.210 124.044 L 83.828 124.563 L 83.438 125.076 L 83.039 125.583 L 82.633 126.083 L 82.219 126.577 L 81.798 127.065 L 81.369 127.545 L 80.932 128.019 L 80.488 128.486 L 80.036 128.946 L 79.578 129.399 L 79.112 129.845 L 78.640 130.283 L 78.160 130.713 L 77.674 131.137 L 77.182 131.552 L 76.682 131.960 L 76.177 132.359 L 75.665 132.751 L 75.147 133.135 L 74.624 133.510 L 74.094 133.877 L 73.559 134.236 L 73.018 134.586 L 72.471 134.928 L 71.920 135.261 L 71.363 135.586 L 70.801 135.901 L 70.234 136.208 L 69.663 136.506 L 69.087 136.795 L 68.506 137.075 L 67.921 137.345 L 67.332 137.607 L 66.739 137.859 L 66.142 138.101 L 65.541 138.335 L 64.937 138.559 L 64.329 138.773 L 63.718 138.978 L 63.104 139.173 L 62.487 139.358 L 61.867 139.534 L 61.244 139.700 L 60.619 139.856 L 59.991 140.002 L 59.361 140.138 L 58.729 140.265 L 58.096 140.381 L 57.460 140.488 L 56.823 140.584 L 56.184 140.671 L 55.544 140.747 L 54.903 140.814 L 54.261 140.870 L 53.619 140.916 L 52.975 140.952 L 52.331 140.978 L 51.687 140.994 L 51.043 141.000 L 50.398 140.996 L 49.754 140.981 L 49.110 140.956 L 48.466 140.922 L 47.823 140.877 L 47.181 140.822 L 46.540 140.757 L 45.900 140.682 L 45.261 140.596 L 44.624 140.501 L 43.988 140.396 L 43.354 140.281 L 42.722 140.156 L 42.092 140.021 L 41.464 139.876 L 40.838 139.721 L 40.215 139.556 L 39.595 139.382 L 38.977 139.198 L 38.363 139.004 L 37.751 138.800 L 37.143 138.587 L 36.538 138.365 L 35.937 138.133 L 35.339 137.891 L 34.746 137.640 L 34.156 137.380 L 33.571 137.111 L 32.990 136.832 L 32.413 136.545 L 31.841 136.248 L 31.273 135.943 L 30.711 135.628 L 30.153 135.305 L 29.601 134.973 L 29.054 134.632 L 28.512 134.283 L 27.976 133.925 L 27.446 133.559 L 26.921 133.185 L 26.403 132.802 L 25.890 132.411 L 25.384 132.013 L 24.884 131.606 L 24.390 131.192 L 23.903 130.770 L 23.423 130.340 L 22.950 129.903 L 22.483 129.458 L 22.024 129.006 L 21.571 128.547 L 21.126 128.081 L 20.689 127.608 L 20.258 127.128 L 19.836 126.642 L 19.421 126.149 L 19.014 125.649 L 18.615 125.143 L 18.223 124.631 L 17.840 124.113 L 17.465 123.589 L 17.099 123.059 L 16.741 122.523 L 16.391 121.982 L 16.050 121.435 L 15.717 120.883 L 15.393 120.326 L 15.078 119.764 L 14.772 119.197 L 14.475 118.625 L 14.186 118.049 L 13.907 117.468 L 13.637 116.883 L 13.376 116.293 L 13.125 115.700 L 12.883 115.103 L 12.650 114.502 L 12.427 113.897 L 12.213 113.289 L 12.009 112.678 L 11.815 112.063 L 11.630 111.446 L 11.455 110.826 L 11.290 110.203 L 11.134 109.577 L 10.989 108.950 L 10.853 108.320 L 10.727 107.688 L 10.611 107.054 L 10.505 106.418 L 10.410 105.781 L 10.324 105.142 L 10.248 104.502 L 10.182 103.861 L 10.127 103.219 L 10.081 102.576 L 10.046 101.933 L 10.020 101.289 L 10.005 100.644 L 10.000 100.000 L 10.005 99.356 L 10.020 98.711 L 10.046 98.067 L 10.081 97.424 L 10.127 96.781 L 10.182 96.139 L 10.248 95.498 L 10.324 94.858 L 10.410 94.219 L 10.505 93.582 L 10.611 92.946 L 10.727 92.312 L 10.853 91.680 L 10.989 91.050 L 11.134 90.423 L 11.290 89.797 L 11.455 89.174 L 11.630 88.554 L 11.815 87.937 L 12.009 87.322 L 12.213 86.711 L 12.427 86.103 L 12.650 85.498 L 12.883 84.897 L 13.125 84.300 L 13.376 83.707 L 13.637 83.117 L 13.907 82.532 L 14.186 81.951 L 14.475 81.375 L 14.772 80.803 L 15.078 80.236 L 15.393 79.674 L 15.717 79.117 L 16.050 78.565 L 16.391 78.018 L 16.741 77.477 L 17.099 76.941 L 17.465 76.411 L 17.840 75.887 L 18.223 75.369 L 18.615 74.857 L 19.014 74.351 L 19.421 73.851 L 19.836 73.358 L 20.258 72.872 L 20.689 72.392 L 21.126 71.919 L 21.571 71.453 L 22.024 70.994 L 22.483 70.542 L 22.950 70.097 L 23.423 69.660 L 23.903 69.230 L 24.390 68.808 L 24.884 68.394 L 25.384 67.987 L 25.890 67.589 L 26.403 67.198 L 26.921 66.815 L 27.446 66.441 L 27.976 66.075 L 28.512 65.717 L 29.054 65.368 L 29.601 65.027 L 30.153 64.695 L 30.711 64.372 L 31.273 64.057 L 31.841 63.752 L 32.413 63.455 L 32.990 63.168 L 33.571 62.889 L 34.156 62.620 L 34.746 62.360 L 35.339 62.109 L 35.937 61.867 L 36.538 61.635 L 37.143 61.413 L 37.751 61.200 L 38.363 60.996 L 38.977 60.802 L 39.595 60.618 L 40.215 60.444 L 40.838 60.279 L 41.464 60.124 L 42.092 59.979 L 42.722 59.844 L 43.354 59.719 L 43.988 59.604 L 44.624 59.499 L 45.261 59.404 L 45.900 59.318 L 46.540 59.243 L 47.181 59.178 L 47.823 59.123 L 48.466 59.078 L 49.110 59.044 L 49.754 59.019 L 50.398 59.004 L 51.043 59.000 L 51.687 59.006 L 52.331 59.022 L 52.975 59.048 L 53.619 59.084 L 54.261 59.130 L 54.903 59.186 L 55.544 59.253 L 56.184 59.329 L 56.823 59.416 L 57.460 59.512 L 58.096 59.619 L 58.729 59.735 L 59.361 59.862 L 59.991 59.998 L 60.619 60.144 L 61.244 60.300 L 61.867 60.466 L 62.487 60.642 L 63.104 60.827 L 63.718 61.022 L 64.329 61.227 L 64.937 61.441 L 65.541 61.665 L 66.142 61.899 L 66.739 62.141 L 67.332 62.393 L 67.921 62.655 L 68.506 62.925 L 69.087 63.205 L 69.663 63.494 L 70.234 63.792 L 70.801 64.099 L 71.363 64.414 L 71.920 64.739 L 72.471 65.072 L 73.018 65.414 L 73.559 65.764 L 74.094 66.123 L 74.624 66.490 L 75.147 66.865 L 75.665 67.249 L 76.177 67.641 L 76.682 68.040 L 77.182 68.448 L 77.674 68.863 L 78.160 69.287 L 78.640 69.717 L 79.112 70.155 L 79.578 70.601 L 80.036 71.054 L 80.488 71.514 L 80.932 71.981 L 81.369 72.455 L 81.798 72.935 L 82.219 73.423 L 82.633 73.917 L 83.039 74.417 L 83.438 74.924 L 83.828 75.437 L 84.210 75.956 L 84.583 76.481 L 84.949 77.012 L 85.306 77.548 L 85.306 77.548 L 86.286 79.045 L 87.265 80.542 L 88.245 82.038 L 89.224 83.535 L 90.204 85.032 L 91.184 86.529 L 92.163 88.026 L 93.143 89.522 L 94.122 91.019 L 95.102 92.516 L 96.082 94.013 L 97.061 95.510 L 98.041 97.006 L 99.020 98.503 L 100.000 100.000 L 100.980 101.497 L 101.959 102.994 L 102.939 104.490 L 103.918 105.987 L 104.898 107.484 L 105.878 108.981 L 106.857 110.478 L 107.837 111.974 L 108.816 113.471 L 109.796 114.968 L 110.776 116.465 L 111.755 117.962 L 112.735 119.458 L 113.714 120.955 L 114.694 122.452 L 114.694 122.452 L 115.051 122.988 L 115.417 123.519 L 115.790 124.044 L 116.172 124.563 L 116.562 125.076 L 116.961 125.583 L 117.367 126.083 L 117.781 126.577 L 118.202 127.065 L 118.631 127.545 L 119.068 128.019 L 119.512 128.486 L 119.964 128.946 L 120.422 129.399 L 120.888 129.845 L 121.360 130.283 L 121.840 130.713 L 122.326 131.137 L 122.818 131.552 L 123.318 131.960 L 123.823 132.359 L 124.335 132.751 L 124.853 133.135 L 125.376 133.510 L 125.906 133.877 L 126.441 134.236 L 126.982 134.586 L 127.529 134.928 L 128.080 135.261 L 128.637 135.586 L 129.199 135.901 L 129.766 136.208 L 130.337 136.506 L 130.913 136.795 L 131.494 137.075 L 132.079 137.345 L 132.668 137.607 L 133.261 137.859 L 133.858 138.101 L 134.459 138.335 L 135.063 138.559 L 135.671 138.773 L 136.282 138.978 L 136.896 139.173 L 137.513 139.358 L 138.133 139.534 L 138.756 139.700 L 139.381 139.856 L 140.009 140.002" fill="none" stroke="#17171A" stroke-width="25.5" stroke-linecap="round" stroke-linejoin="round"/><path d="M 166.564 147.301 L 132.709 166.557 L 147.308 113.447 Z" fill="#17171A"/></g><g transform="translate(243.559,96.700)"><g transform="translate(0.000,0) scale(0.10000,-0.10000)"><path d="M233 740V0H62V740Z" fill="#17171A"/></g><path d="M 124.920 -27.900 L 124.915 -27.595 L 124.899 -27.291 L 124.873 -26.987 L 124.836 -26.684 L 124.789 -26.383 L 124.732 -26.082 L 124.664 -25.784 L 124.585 -25.488 L 124.496 -25.194 L 124.397 -24.903 L 124.288 -24.614 L 124.168 -24.329 L 124.038 -24.048 L 123.897 -23.770 L 123.747 -23.496 L 123.586 -23.227 L 123.415 -22.962 L 123.234 -22.702 L 123.043 -22.448 L 122.842 -22.198 L 122.631 -21.955 L 122.410 -21.717 L 122.179 -21.485 L 121.938 -21.260 L 121.688 -21.041 L 121.428 -20.829 L 121.158 -20.624 L 120.879 -20.426 L 120.590 -20.235 L 120.292 -20.053 L 119.985 -19.877 L 119.668 -19.710 L 119.342 -19.551 L 119.007 -19.400 L 118.663 -19.257 L 118.310 -19.123 L 117.948 -18.998 L 117.578 -18.881 L 117.199 -18.773 L 116.811 -18.675 L 116.415 -18.585 L 116.010 -18.505 L 115.597 -18.434 L 115.176 -18.372 L 114.747 -18.319 L 114.310 -18.276 L 113.865 -18.243 L 113.412 -18.219 L 112.952 -18.205 L 112.484 -18.200 L 112.008 -18.205 L 111.526 -18.219 L 111.036 -18.243 L 110.539 -18.276 L 110.036 -18.319 L 109.525 -18.372 L 109.008 -18.434 L 108.484 -18.505 L 107.954 -18.585 L 107.417 -18.675 L 106.875 -18.773 L 106.326 -18.881 L 105.772 -18.998 L 105.211 -19.123 L 104.645 -19.257 L 104.074 -19.400 L 103.497 -19.551 L 102.915 -19.710 L 102.328 -19.877 L 101.736 -20.053 L 101.140 -20.235 L 100.539 -20.426 L 99.933 -20.624 L 99.323 -20.829 L 98.709 -21.041 L 98.091 -21.260 L 97.469 -21.485 L 96.843 -21.717 L 96.214 -21.955 L 95.581 -22.198 L 94.945 -22.448 L 94.306 -22.702 L 93.664 -22.962 L 93.019 -23.227 L 92.372 -23.496 L 91.722 -23.770 L 91.070 -24.048 L 90.416 -24.329 L 89.760 -24.614 L 89.102 -24.903 L 88.443 -25.194 L 87.782 -25.488 L 87.119 -25.784 L 86.456 -26.082 L 85.791 -26.383 L 85.126 -26.684 L 84.460 -26.987 L 83.794 -27.291 L 83.127 -27.595 L 82.460 -27.900 L 81.793 -28.205 L 81.126 -28.509 L 80.460 -28.813 L 79.794 -29.116 L 79.129 -29.417 L 78.464 -29.718 L 77.801 -30.016 L 77.138 -30.312 L 76.477 -30.606 L 75.818 -30.897 L 75.160 -31.186 L 74.504 -31.471 L 73.850 -31.752 L 73.198 -32.030 L 72.548 -32.304 L 71.901 -32.573 L 71.256 -32.838 L 70.614 -33.098 L 69.975 -33.352 L 69.339 -33.602 L 68.706 -33.845 L 68.077 -34.083 L 67.451 -34.315 L 66.829 -34.540 L 66.211 -34.759 L 65.597 -34.971 L 64.987 -35.176 L 64.381 -35.374 L 63.780 -35.565 L 63.184 -35.747 L 62.592 -35.923 L 62.005 -36.090 L 61.423 -36.249 L 60.846 -36.400 L 60.275 -36.543 L 59.709 -36.677 L 59.148 -36.802 L 58.594 -36.919 L 58.045 -37.027 L 57.503 -37.125 L 56.966 -37.215 L 56.436 -37.295 L 55.912 -37.366 L 55.395 -37.428 L 54.884 -37.481 L 54.381 -37.524 L 53.884 -37.557 L 53.394 -37.581 L 52.912 -37.595 L 52.436 -37.600 L 51.968 -37.595 L 51.508 -37.581 L 51.055 -37.557 L 50.610 -37.524 L 50.173 -37.481 L 49.744 -37.428 L 49.323 -37.366 L 48.910 -37.295 L 48.505 -37.215 L 48.109 -37.125 L 47.721 -37.027 L 47.342 -36.919 L 46.972 -36.802 L 46.610 -36.677 L 46.257 -36.543 L 45.913 -36.400 L 45.578 -36.249 L 45.252 -36.090 L 44.935 -35.923 L 44.628 -35.747 L 44.330 -35.565 L 44.041 -35.374 L 43.762 -35.176 L 43.492 -34.971 L 43.232 -34.759 L 42.982 -34.540 L 42.741 -34.315 L 42.510 -34.083 L 42.289 -33.845 L 42.078 -33.602 L 41.877 -33.352 L 41.686 -33.098 L 41.505 -32.838 L 41.334 -32.573 L 41.173 -32.304 L 41.023 -32.030 L 40.882 -31.752 L 40.752 -31.471 L 40.632 -31.186 L 40.523 -30.897 L 40.424 -30.606 L 40.335 -30.312 L 40.256 -30.016 L 40.188 -29.718 L 40.131 -29.417 L 40.084 -29.116 L 40.047 -28.813 L 40.021 -28.509 L 40.005 -28.205 L 40.000 -27.900 L 40.005 -27.595 L 40.021 -27.291 L 40.047 -26.987 L 40.084 -26.684 L 40.131 -26.383 L 40.188 -26.082 L 40.256 -25.784 L 40.335 -25.488 L 40.424 -25.194 L 40.523 -24.903 L 40.632 -24.614 L 40.752 -24.329 L 40.882 -24.048 L 41.023 -23.770 L 41.173 -23.496 L 41.334 -23.227 L 41.505 -22.962 L 41.686 -22.702 L 41.877 -22.448 L 42.078 -22.198 L 42.289 -21.955 L 42.510 -21.717 L 42.741 -21.485 L 42.982 -21.260 L 43.232 -21.041 L 43.492 -20.829 L 43.762 -20.624 L 44.041 -20.426 L 44.330 -20.235 L 44.628 -20.053 L 44.935 -19.877 L 45.252 -19.710 L 45.578 -19.551 L 45.913 -19.400 L 46.257 -19.257 L 46.610 -19.123 L 46.972 -18.998 L 47.342 -18.881 L 47.721 -18.773 L 48.109 -18.675 L 48.505 -18.585 L 48.910 -18.505 L 49.323 -18.434 L 49.744 -18.372 L 50.173 -18.319 L 50.610 -18.276 L 51.055 -18.243 L 51.508 -18.219 L 51.968 -18.205 L 52.436 -18.200 L 52.912 -18.205 L 53.394 -18.219 L 53.884 -18.243 L 54.381 -18.276 L 54.884 -18.319 L 55.395 -18.372 L 55.912 -18.434 L 56.436 -18.505 L 56.966 -18.585 L 57.503 -18.675 L 58.045 -18.773 L 58.594 -18.881 L 59.148 -18.998 L 59.709 -19.123 L 60.275 -19.257 L 60.846 -19.400 L 61.423 -19.551 L 62.005 -19.710 L 62.592 -19.877 L 63.184 -20.053 L 63.780 -20.235 L 64.381 -20.426 L 64.987 -20.624 L 65.597 -20.829 L 66.211 -21.041 L 66.829 -21.260 L 67.451 -21.485 L 68.077 -21.717 L 68.706 -21.955 L 69.339 -22.198 L 69.975 -22.448 L 70.614 -22.702 L 71.256 -22.962 L 71.901 -23.227 L 72.548 -23.496 L 73.198 -23.770 L 73.850 -24.048 L 74.504 -24.329 L 75.160 -24.614 L 75.818 -24.903 L 76.477 -25.194 L 77.138 -25.488 L 77.801 -25.784 L 78.464 -26.082 L 79.129 -26.383 L 79.794 -26.684 L 80.460 -26.987 L 81.126 -27.291 L 81.793 -27.595 L 82.460 -27.900 L 83.127 -28.205 L 83.794 -28.509 L 84.460 -28.813 L 85.126 -29.116 L 85.791 -29.417 L 86.456 -29.718 L 87.119 -30.016 L 87.782 -30.312 L 88.443 -30.606 L 89.102 -30.897 L 89.760 -31.186 L 90.416 -31.471 L 91.070 -31.752 L 91.722 -32.030 L 92.372 -32.304 L 93.019 -32.573 L 93.664 -32.838 L 94.306 -33.098 L 94.945 -33.352 L 95.581 -33.602 L 96.214 -33.845 L 96.843 -34.083 L 97.469 -34.315 L 98.091 -34.540 L 98.709 -34.759 L 99.323 -34.971 L 99.933 -35.176 L 100.539 -35.374 L 101.140 -35.565 L 101.736 -35.747 L 102.328 -35.923 L 102.915 -36.090 L 103.497 -36.249 L 104.074 -36.400 L 104.645 -36.543 L 105.211 -36.677 L 105.772 -36.802 L 106.326 -36.919 L 106.875 -37.027 L 107.417 -37.125 L 107.954 -37.215 L 108.484 -37.295 L 109.008 -37.366 L 109.525 -37.428 L 110.036 -37.481 L 110.539 -37.524 L 111.036 -37.557 L 111.526 -37.581 L 112.008 -37.595 L 112.484 -37.600 L 112.952 -37.595 L 113.412 -37.581 L 113.865 -37.557 L 114.310 -37.524 L 114.747 -37.481 L 115.176 -37.428 L 115.597 -37.366 L 116.010 -37.295 L 116.415 -37.215 L 116.811 -37.125 L 117.199 -37.027 L 117.578 -36.919 L 117.948 -36.802 L 118.310 -36.677 L 118.663 -36.543 L 119.007 -36.400 L 119.342 -36.249 L 119.668 -36.090 L 119.985 -35.923 L 120.292 -35.747 L 120.590 -35.565 L 120.879 -35.374 L 121.158 -35.176 L 121.428 -34.971 L 121.688 -34.759 L 121.938 -34.540 L 122.179 -34.315 L 122.410 -34.083 L 122.631 -33.845 L 122.842 -33.602 L 123.043 -33.352 L 123.234 -33.098 L 123.415 -32.838 L 123.586 -32.573 L 123.747 -32.304 L 123.897 -32.030 L 124.038 -31.752 L 124.168 -31.471 L 124.288 -31.186 L 124.397 -30.897 L 124.496 -30.606 L 124.585 -30.312 L 124.664 -30.016 L 124.732 -29.718 L 124.789 -29.417 L 124.836 -29.116 L 124.873 -28.813 L 124.899 -28.509 L 124.915 -28.205 L 124.920 -27.900" fill="none" stroke="#17171A" stroke-width="17.000" stroke-linecap="round" stroke-linejoin="round"/><g transform="translate(135.420,0) scale(0.10000,-0.10000)"><path d="M405 566Q474 566 530.0 531.0Q586 496 618.5 431.0Q651 366 651 280Q651 194 618.5 128.5Q586 63 530.0 27.5Q474 -8 405 -8Q347 -8 302.5 16.0Q258 40 233 78V-266H62V558H233V479Q258 518 302.0 542.0Q346 566 405 566ZM354 417Q303 417 267.5 380.0Q232 343 232 279Q232 215 267.5 178.0Q303 141 354 141Q405 141 441.0 178.5Q477 216 477 280Q477 344 441.5 380.5Q406 417 354 417Z" fill="#17171A"/></g><g transform="translate(205.320,0) scale(0.10000,-0.10000)"><path d="M632 558 282 -265H98L226 19L-1 558H190L319 209L447 558Z" fill="#17171A"/></g></g></svg>